<svg width="24" height="24" xmlns="http://www.w3.org/2000/svg"><path fill-rule="evenodd" clip-rule="evenodd" d="M7 5a2 2 0 00-2 2v10a2 2 0 002 2h5a2 2 0 002-2 1 1 0 112 0 4 4 0 01-4 4H7a4 4 0 01-4-4V7a4 4 0 014-4h5a4 4 0 014 4 1 1 0 11-2 0 2 2 0 00-2-2H7z" /><path fill-rule="evenodd" clip-rule="evenodd" d="M11 12a1 1 0 011-1h8a1 1 0 110 2h-8a1 1 0 01-1-1z" /><path fill-rule="evenodd" clip-rule="evenodd" d="M17.293 8.293a1 1 0 011.414 0l3 3a1 1 0 010 1.414l-3 3a1 1 0 01-1.414-1.414L19.586 12l-2.293-2.293a1 1 0 010-1.414z" /></svg>
