<svg fill="none" xmlns="http://www.w3.org/2000/svg" viewBox="0 0 191 44"><path d="M167.929 6.43H132.69v30.336h35.239V6.43z" fill="#fff"/><path d="M150.437 18.471l-1.906 5.746h3.868l-1.906-5.746h-.056zm5.239 15.288l-1.365-3.985h-7.686l-1.363 3.985h-10.481l8.227-23.528 14.92-.002 8.227 23.53h-10.479zM190.487 22l-25.6-22h-36.002v44h36.002l25.6-22z" fill="#82BC00"/><path d="M35.046 24.215l1.907-5.752h.065l1.9 5.752h-3.872zm9.406-14.004H29.52l-7.755 22.176v-.001l-.483 1.38h10.492l1.365-3.99h7.687l1.373 3.99h10.483L44.452 10.21zM75.278 21.844c2.384-1.36 3.078-3.126 3.078-5.057 0-2.718-1.525-6.576-9.183-6.576h-14.81v23.555h16.522c5.534 0 8.114-2.883 8.114-6.512 0-2.026-.737-3.83-3.721-5.41zm-10.426-6.891h.636c2.131 0 2.767.984 2.767 2.278 0 1.673-.86 2.306-3.15 2.306h-.253v-4.584zm.311 13.623h-.31v-5.088h.73c2.195 0 2.918 1.108 2.918 2.658 0 1.77-.918 2.43-3.338 2.43zM81.192 33.765h19.665v-5.914h-9.183V24.94h6.394v-5.905h-6.394v-2.91h9.183V10.21H81.192v23.554zM113.775 10.211h-10.491v23.554h19.673v-5.913h-9.182v-17.64zM10.483 27.852v-17.64H0v23.553h19.665v-5.913h-9.182z" fill="#0F0F0F"/></svg>