<svg xmlns="http://www.w3.org/2000/svg" viewBox="0 0 24 24"><path d="M6.907 13.889l.425.905-.425-.905zM10.5 12c0-.807-.395-1.52-.714-2.03-.382-.61-.667-.968-.892-1.417l-1.788.894c.275.55.74 1.193.983 1.583.306.49.411.777.411.97h2zM6 18v-1.226H4V18h2zm1.332-3.206c.628-.294 1.33-.654 1.888-1.028.277-.185.557-.4.78-.638.192-.206.5-.598.5-1.128h-2c0-.254.137-.344.036-.235-.072.078-.21.193-.429.34-.431.289-1.025.598-1.624.878l.849 1.811zM18 16.774v.526h2v-.526h-2zM8 22h7.3v-2H8v2zm7.106-13.447c-.225.45-.51.807-.892 1.417-.319.51-.714 1.223-.714 2.03h2c0-.193.105-.48.41-.97.244-.39.71-1.032.984-1.583l-1.788-.894zm2.41 4.43c-.598-.28-1.192-.59-1.623-.878a2.586 2.586 0 01-.429-.34c-.101-.11.036-.02.036.235h-2c0 .53.308.922.5 1.128.223.239.504.453.78.638.558.374 1.26.734 1.888 1.028l.849-1.81zm-.622-3.536c.139-.276.203-.597.235-.88.034-.3.04-.637.017-.99a7.54 7.54 0 00-.533-2.33C15.953 3.631 14.536 2 12 2v2c1.464 0 2.297.867 2.762 2.004.235.575.355 1.186.388 1.7.017.257.01.474-.008.638-.02.183-.05.237-.036.21l1.788.895zm-8-.894c.014.026-.015-.028-.036-.21a3.704 3.704 0 01-.008-.638 5.544 5.544 0 01.388-1.701C9.703 4.868 10.536 4 12 4V2C9.464 2 8.047 3.632 7.387 5.246a7.543 7.543 0 00-.533 2.33c-.023.354-.017.691.017.992.032.282.096.603.235.88l1.788-.895zM20 16.773c0-1.675-1.04-3.113-2.483-3.79l-.849 1.811c.817.383 1.332 1.16 1.332 1.98h2zm-14 0c0-.82.516-1.596 1.332-1.979l-.849-1.81C5.04 13.66 4 15.097 4 16.773h2zM4 18a4 4 0 004 4v-2a2 2 0 01-2-2H4zm14-.7a2.7 2.7 0 01-2.7 2.7v2a4.7 4.7 0 004.7-4.7h-2z" /></svg>
